<svg xmlns="http://www.w3.org/2000/svg" xmlns:xlink="http://www.w3.org/1999/xlink" width="400" zoomAndPan="magnify" viewBox="0 0 300 149.999998" height="200" preserveAspectRatio="xMidYMid meet" version="1.0"><defs><g/><clipPath id="0df98e2470"><path d="M 46 60 L 72.75 60 L 72.75 79 L 46 79 Z M 46 60 " clip-rule="nonzero"/></clipPath><clipPath id="b2c4f7d558"><path d="M 38 40.011719 L 72 40.011719 L 72 69 L 38 69 Z M 38 40.011719 " clip-rule="nonzero"/></clipPath><clipPath id="de7a87665e"><path d="M 15 60 L 50 60 L 50 89.511719 L 15 89.511719 Z M 15 60 " clip-rule="nonzero"/></clipPath><clipPath id="c03772f57d"><path d="M 83 68 L 117 68 L 117 97.761719 L 83 97.761719 Z M 83 68 " clip-rule="nonzero"/></clipPath><clipPath id="73166318c6"><path d="M 63.132812 40.011719 L 97 40.011719 L 97 69 L 63.132812 69 Z M 63.132812 40.011719 " clip-rule="nonzero"/></clipPath><clipPath id="71829b66ed"><rect x="0" width="151" y="0" height="92"/></clipPath></defs><g clip-path="url(#0df98e2470)"><path fill="#707fdd" d="M 46.773438 78.597656 L 59.964844 60.566406 L 72.359375 60.566406 L 59.171875 78.597656 Z M 46.773438 78.597656 " fill-opacity="1" fill-rule="evenodd"/></g><g clip-path="url(#b2c4f7d558)"><path fill="#707fdd" d="M 71.707031 40.011719 L 50.707031 68.859375 L 38.308594 68.859375 L 59.308594 40.011719 Z M 71.707031 40.011719 " fill-opacity="1" fill-rule="evenodd"/></g><path fill="#acbad5" d="M 40.601562 50.554688 L 27.410156 68.585938 L 15.015625 68.585938 L 28.203125 50.554688 Z M 40.601562 50.554688 " fill-opacity="1" fill-rule="evenodd"/><g clip-path="url(#de7a87665e)"><path fill="#acbad5" d="M 15.667969 89.136719 L 36.667969 60.289062 L 49.066406 60.289062 L 28.066406 89.136719 Z M 15.667969 89.136719 " fill-opacity="1" fill-rule="evenodd"/></g><g clip-path="url(#c03772f57d)"><path fill="#acbad5" d="M 100.183594 68.699219 L 83.621094 97.390625 L 100.339844 97.390625 L 116.90625 68.699219 L 100.183594 68.699219 " fill-opacity="1" fill-rule="nonzero"/></g><path fill="#5a67ba" d="M 107.902344 53.109375 L 91.179688 53.109375 L 100.183594 68.699219 L 116.90625 68.699219 L 107.902344 53.109375 " fill-opacity="1" fill-rule="nonzero"/><g clip-path="url(#73166318c6)"><path fill="#5a67ba" d="M 79.863281 40.011719 L 63.140625 40.011719 L 79.707031 68.699219 L 96.425781 68.699219 L 79.863281 40.011719 " fill-opacity="1" fill-rule="nonzero"/></g><path fill="#acbad5" d="M 79.707031 68.699219 L 70.703125 84.292969 L 87.425781 84.292969 L 96.425781 68.699219 L 79.707031 68.699219 " fill-opacity="1" fill-rule="nonzero"/><g transform="matrix(1, 0, 0, 1, 137, 26)"><g clip-path="url(#71829b66ed)"><g fill="#f6f7fc" fill-opacity="1"><g transform="translate(0.602465, 73.030381)"><g><path d="M 15.65625 -52.484375 L 15.65625 0 L 4.5625 0 L 4.5625 -52.484375 Z M 15.65625 -52.484375 "/></g></g></g><g fill="#f6f7fc" fill-opacity="1"><g transform="translate(20.843973, 73.030381)"><g><path d="M 13.609375 0 L 1.71875 0 L 19.828125 -52.484375 L 34.125 -52.484375 L 52.21875 0 L 40.328125 0 L 36.4375 -11.96875 L 17.5 -11.96875 Z M 20.3125 -20.625 L 33.640625 -20.625 L 27.1875 -40.484375 L 26.78125 -40.484375 Z M 20.3125 -20.625 "/></g></g></g><g fill="#f6f7fc" fill-opacity="1"><g transform="translate(74.804172, 73.030381)"><g><path d="M 15.65625 -52.484375 L 15.65625 0 L 4.5625 0 L 4.5625 -52.484375 Z M 15.65625 -52.484375 "/></g></g></g><g fill="#f6f7fc" fill-opacity="1"><g transform="translate(95.04568, 73.030381)"><g><path d="M 48.453125 -52.484375 L 48.453125 0 L 38.875 0 L 16.046875 -33.03125 L 15.65625 -33.03125 L 15.65625 0 L 4.5625 0 L 4.5625 -52.484375 L 14.296875 -52.484375 L 36.953125 -19.46875 L 37.40625 -19.46875 L 37.40625 -52.484375 Z M 48.453125 -52.484375 "/></g></g></g></g></g></svg>