<svg xmlns="http://www.w3.org/2000/svg" xmlns:xlink="http://www.w3.org/1999/xlink" width="500" zoomAndPan="magnify" viewBox="0 0 375 374.999991" height="500" preserveAspectRatio="xMidYMid meet" version="1.0"><defs><clipPath id="e38c58401d"><path d="M 109 71 L 197.566406 71 L 197.566406 134 L 109 134 Z M 109 71 " clip-rule="nonzero"/></clipPath><clipPath id="30d259c9f8"><path d="M 80 0.832031 L 196 0.832031 L 196 101 L 80 101 Z M 80 0.832031 " clip-rule="nonzero"/></clipPath><clipPath id="f92011b185"><path d="M 0.238281 37 L 89 37 L 89 100 L 0.238281 100 Z M 0.238281 37 " clip-rule="nonzero"/></clipPath><clipPath id="45d9900f8c"><path d="M 2 70 L 118 70 L 118 169.554688 L 2 169.554688 Z M 2 70 " clip-rule="nonzero"/></clipPath><clipPath id="435bcce01a"><path d="M 236 99 L 350.878906 99 L 350.878906 198.167969 L 236 198.167969 Z M 236 99 " clip-rule="nonzero"/></clipPath><clipPath id="39b7ad5160"><path d="M 262 45 L 350.878906 45 L 350.878906 100 L 262 100 Z M 262 45 " clip-rule="nonzero"/></clipPath><clipPath id="95173808d9"><path d="M 165.765625 0.832031 L 281 0.832031 L 281 100 L 165.765625 100 Z M 165.765625 0.832031 " clip-rule="nonzero"/></clipPath><clipPath id="a2ad6fd8b3"><rect x="0" width="351" y="0" height="199"/></clipPath></defs><g transform="matrix(1, 0, 0, 1, 12, 88)"><g clip-path="url(#a2ad6fd8b3)"><g clip-path="url(#e38c58401d)"><path fill="#707fdd" d="M 109.519531 133.539062 L 154.882812 71.523438 L 197.523438 71.523438 L 152.15625 133.539062 Z M 109.519531 133.539062 " fill-opacity="1" fill-rule="evenodd"/></g><g clip-path="url(#30d259c9f8)"><path fill="#707fdd" d="M 195.273438 0.832031 L 123.039062 100.054688 L 80.398438 100.054688 L 152.632812 0.832031 Z M 195.273438 0.832031 " fill-opacity="1" fill-rule="evenodd"/></g><g clip-path="url(#f92011b185)"><path fill="#acbad5" d="M 88.28125 37.089844 L 42.917969 99.109375 L 0.277344 99.109375 L 45.640625 37.089844 Z M 88.28125 37.089844 " fill-opacity="1" fill-rule="evenodd"/></g><g clip-path="url(#45d9900f8c)"><path fill="#acbad5" d="M 2.527344 169.796875 L 74.761719 70.578125 L 117.398438 70.578125 L 45.164062 169.796875 Z M 2.527344 169.796875 " fill-opacity="1" fill-rule="evenodd"/></g><g clip-path="url(#435bcce01a)"><path fill="#acbad5" d="M 293.203125 99.5 L 236.234375 198.167969 L 293.746094 198.167969 L 350.714844 99.5 L 293.203125 99.5 " fill-opacity="1" fill-rule="nonzero"/></g><g clip-path="url(#39b7ad5160)"><path fill="#5a67ba" d="M 319.753906 45.875 L 262.242188 45.875 L 293.203125 99.5 L 350.714844 99.5 L 319.753906 45.875 " fill-opacity="1" fill-rule="nonzero"/></g><g clip-path="url(#95173808d9)"><path fill="#5a67ba" d="M 223.316406 0.832031 L 165.804688 0.832031 L 222.769531 99.5 L 280.28125 99.5 L 223.316406 0.832031 " fill-opacity="1" fill-rule="nonzero"/></g><path fill="#acbad5" d="M 222.769531 99.5 L 191.8125 153.125 L 249.324219 153.125 L 280.28125 99.5 L 222.769531 99.5 " fill-opacity="1" fill-rule="nonzero"/></g></g></svg>