<svg xmlns="http://www.w3.org/2000/svg" xmlns:xlink="http://www.w3.org/1999/xlink" width="400" zoomAndPan="magnify" viewBox="0 0 300 149.999998" height="200" preserveAspectRatio="xMidYMid meet" version="1.0"><defs><g/><clipPath id="19ee87e3e5"><path d="M 46 61 L 72.75 61 L 72.75 80 L 46 80 Z M 46 61 " clip-rule="nonzero"/></clipPath><clipPath id="9542dd96ad"><path d="M 38 41.347656 L 72 41.347656 L 72 71 L 38 71 Z M 38 41.347656 " clip-rule="nonzero"/></clipPath><clipPath id="4b37358250"><path d="M 15 61 L 50 61 L 50 90.847656 L 15 90.847656 Z M 15 61 " clip-rule="nonzero"/></clipPath><clipPath id="1292a83d09"><path d="M 63.132812 41.347656 L 97 41.347656 L 97 71 L 63.132812 71 Z M 63.132812 41.347656 " clip-rule="nonzero"/></clipPath><clipPath id="0e3d8d402a"><rect x="0" width="151" y="0" height="92"/></clipPath></defs><g clip-path="url(#19ee87e3e5)"><path fill="#707fdd" d="M 46.773438 79.933594 L 59.964844 61.902344 L 72.359375 61.902344 L 59.171875 79.933594 Z M 46.773438 79.933594 " fill-opacity="1" fill-rule="evenodd"/></g><g clip-path="url(#9542dd96ad)"><path fill="#707fdd" d="M 71.707031 41.347656 L 50.707031 70.195312 L 38.308594 70.195312 L 59.308594 41.347656 Z M 71.707031 41.347656 " fill-opacity="1" fill-rule="evenodd"/></g><path fill="#acbad5" d="M 40.601562 51.890625 L 27.410156 69.921875 L 15.015625 69.921875 L 28.203125 51.890625 Z M 40.601562 51.890625 " fill-opacity="1" fill-rule="evenodd"/><g clip-path="url(#4b37358250)"><path fill="#acbad5" d="M 15.667969 90.472656 L 36.667969 61.625 L 49.066406 61.625 L 28.066406 90.472656 Z M 15.667969 90.472656 " fill-opacity="1" fill-rule="evenodd"/></g><path fill="#acbad5" d="M 100.183594 70.035156 L 83.621094 98.726562 L 100.339844 98.726562 L 116.90625 70.035156 L 100.183594 70.035156 " fill-opacity="1" fill-rule="nonzero"/><path fill="#5a67ba" d="M 107.902344 54.445312 L 91.179688 54.445312 L 100.183594 70.035156 L 116.90625 70.035156 L 107.902344 54.445312 " fill-opacity="1" fill-rule="nonzero"/><g clip-path="url(#1292a83d09)"><path fill="#5a67ba" d="M 79.863281 41.347656 L 63.140625 41.347656 L 79.707031 70.035156 L 96.425781 70.035156 L 79.863281 41.347656 " fill-opacity="1" fill-rule="nonzero"/></g><path fill="#acbad5" d="M 79.707031 70.035156 L 70.703125 85.628906 L 87.425781 85.628906 L 96.425781 70.035156 L 79.707031 70.035156 " fill-opacity="1" fill-rule="nonzero"/><g transform="matrix(1, 0, 0, 1, 137, 26)"><g clip-path="url(#0e3d8d402a)"><g fill="#02084b" fill-opacity="1"><g transform="translate(0.602465, 73.030381)"><g><path d="M 15.65625 -52.484375 L 15.65625 0 L 4.5625 0 L 4.5625 -52.484375 Z M 15.65625 -52.484375 "/></g></g></g><g fill="#02084b" fill-opacity="1"><g transform="translate(20.843973, 73.030381)"><g><path d="M 13.609375 0 L 1.71875 0 L 19.828125 -52.484375 L 34.125 -52.484375 L 52.21875 0 L 40.328125 0 L 36.4375 -11.96875 L 17.5 -11.96875 Z M 20.3125 -20.625 L 33.640625 -20.625 L 27.1875 -40.484375 L 26.78125 -40.484375 Z M 20.3125 -20.625 "/></g></g></g><g fill="#02084b" fill-opacity="1"><g transform="translate(74.804172, 73.030381)"><g><path d="M 15.65625 -52.484375 L 15.65625 0 L 4.5625 0 L 4.5625 -52.484375 Z M 15.65625 -52.484375 "/></g></g></g><g fill="#02084b" fill-opacity="1"><g transform="translate(95.04568, 73.030381)"><g><path d="M 48.453125 -52.484375 L 48.453125 0 L 38.875 0 L 16.046875 -33.03125 L 15.65625 -33.03125 L 15.65625 0 L 4.5625 0 L 4.5625 -52.484375 L 14.296875 -52.484375 L 36.953125 -19.46875 L 37.40625 -19.46875 L 37.40625 -52.484375 Z M 48.453125 -52.484375 "/></g></g></g></g></g></svg>